<!--?xml version="1.0" encoding="utf-8"?-->
<!-- Generator: Adobe Illustrator 18.1.1, SVG Export Plug-In . SVG Version: 6.00 Build 0)  -->

<svg version="1.1" id="_x31_0" xmlns="http://www.w3.org/2000/svg" xmlns:xlink="http://www.w3.org/1999/xlink" x="0px" y="0px" viewBox="0 0 512 512" style="width: 256px; height: 256px; opacity: 1;" xml:space="preserve">
<style type="text/css">
	.st0{fill:#374149;}
</style>
<g>
	<path class="st0" d="M394.56,428.484l-17.68-211.281c-1.602-19.328-12.347-36.09-27.894-46.898
		c-3.766-2.66-7.766-5.078-12.117-7.023h9.691c11.519,0,20.801-9.36,20.801-20.798v-32c0-11.523-9.282-20.804-20.801-20.804h-15.199
		v-8.317C331.361,70.32,320.08,64,312.08,62c-10-2.398-20.801-5.438-29.762-9.117V26.32c0-7.195-2.957-13.836-7.758-18.64
		C269.838,2.961,263.201,0,256.002,0c-14.481,0-26.321,11.844-26.321,26.32v26.563c-8.961,3.679-19.762,6.718-29.843,9.117
		c-7.918,2-19.199,8.32-19.199,19.363v8.317h-15.278c-11.442,0-20.801,9.281-20.801,20.804v32c0,11.438,9.359,20.798,20.801,20.798
		h5.246l4.48,0.14c-21.934,9.489-37.976,29.723-39.969,53.782L117.44,428.484c-1.918,22.641,5.359,44.798,20,60.719
		C150.959,503.922,169.279,512,189.119,512H322.88c19.84,0,38.161-8.078,51.68-22.797
		C389.201,473.282,396.479,451.125,394.56,428.484z M160.4,396.164h59.519c4.082,0,7.359-3.281,7.359-7.359
		c0-4.082-3.277-7.359-7.359-7.359h-54.031l-4.285-0.016l3.758-45.11h54.558c4.082,0,7.359-3.277,7.359-7.359
		c0-4.078-3.277-7.359-7.359-7.359h-49.378l-3.898-0.012l3.758-45.106h49.519c4.082,0,7.359-3.281,7.359-7.359
		c0-4.082-3.277-7.445-7.359-7.445h-44.668l-3.648-0.012l3.515-41.184c1.039-12.64,13.68-22.882,28.16-22.882H308.72
		c14.481,0,27.118,10.242,28.16,22.882l17.68,211.36c0.961,11.519-2.481,22.558-9.602,30.156
		c-4.078,4.484-11.278,9.844-22.078,9.844H189.119c-10.878,0-18-5.36-22.16-9.844c-7.039-7.598-10.48-18.637-9.519-30.156
		L160.4,396.164z"></path>
</g>
</svg>
